<svg xmlns="http://www.w3.org/2000/svg" viewBox="0 0 139.92 155.77"><defs><style>.cls-1{fill:none;stroke:#1d1d1b;stroke-miterlimit:10;stroke-width:5px;}</style></defs><g id="Laag_2" data-name="Laag 2"><path class="cls-1" d="M258.19,316.18a30.39,30.39,0,1,0,60.75-.22" transform="translate(-219.01 -253.9)"/><path class="cls-1" d="M243.91,256.4,221.51,287V392a16.07,16.07,0,0,0,5.19,11.4,15.57,15.57,0,0,0,9.11,3.79h105.9s7.11-1.37,10.76-5.6a13.83,13.83,0,0,0,3-8.06c.78-8.42,1.19-50.25.92-107.38L333.08,256.4Z" transform="translate(-219.01 -253.9)"/><line class="cls-1" x1="2.5" y1="33.08" x2="137.33" y2="33.08"/><path class="cls-1" d="M241.33,437.76" transform="translate(-219.01 -253.9)"/></g></svg>