<svg id="Laag_2" data-name="Laag 2" xmlns="http://www.w3.org/2000/svg" viewBox="0 0 117.94 104.16"><defs><style>.cls-1{fill:none;stroke:#1d1d1b;stroke-miterlimit:10;stroke-width:5px;}</style></defs><path class="cls-1" d="M286.61,484.71c9-8.46,18.27-17.75,27.67-27.91,7.69-8.33,14.8-16.52,21.35-24.48.94-1.14,9.5-11.89,5.94-25.34A28.17,28.17,0,0,0,330,391.1a29.59,29.59,0,0,0-19.22-4.57c-.64.07-1.15.14-1.5.19-13.65,1.95-20.81,12.43-21.94,14.13-1.59-2.18-8.76-11.46-21.69-13.65-2.22-.37-16.65-2.56-27.3,7.8-1,1-8.87,8.86-8.86,20.49,0,4,.95,8.7,4.23,14.61C245.12,450.66,282,481,286.61,484.71Z" transform="translate(-226.99 -383.87)"/><path class="cls-1" d="M343.55,412.72" transform="translate(-226.99 -383.87)"/></svg>