<?xml version="1.0" encoding="utf-8"?>
<!-- Generator: Adobe Illustrator 25.0.1, SVG Export Plug-In . SVG Version: 6.00 Build 0)  -->
<svg version="1.1" id="Laag_2_1_" xmlns="http://www.w3.org/2000/svg" xmlns:xlink="http://www.w3.org/1999/xlink" x="0px" y="0px"
	 viewBox="0 0 117.9 104.2" style="enable-background:new 0 0 117.9 104.2;" xml:space="preserve">
<style type="text/css">
	.st0{fill:#EC96C0;stroke:#F089B6;stroke-miterlimit:10;}
	.st1{fill:none;stroke:#1D1D1B;stroke-width:5;stroke-miterlimit:10;}
</style>
<path class="st0" d="M59.6,100.8c9-8.5,18.3-17.8,27.7-27.9c7.7-8.3,14.8-16.5,21.4-24.5c0.9-1.1,9.5-11.9,5.9-25.3
	c-1.8-6.5-5.9-12.1-11.6-15.9c-5.7-3.7-12.5-5.3-19.2-4.6c-0.6,0.1-1.1,0.1-1.5,0.2C68.6,4.8,61.5,15.3,60.3,17
	c-1.6-2.2-8.8-11.5-21.7-13.6C36.4,3,22,0.8,11.4,11.1c-1,1-8.9,8.9-8.9,20.5c0,4,0.9,8.7,4.2,14.6C18.1,66.8,55,97.1,59.6,100.8z"
	/>
<path class="st1" d="M116.6,28.9"/>
</svg>
